<svg xmlns="http://www.w3.org/2000/svg" xmlns:xlink="http://www.w3.org/1999/xlink" version="1.1" x="0px" y="0px" width="100px" height="100px" viewBox="5.0 -10.0 100.0 135.0" enable-background="new 0 0 100 100" xml:space="preserve">
<g id="Captions">
</g>
<g id="Your_Icon">
	<g>
		<path d="M50,14c-19.882,0-36,16.117-36,36s16.118,36,36,36c19.883,0,36-16.117,36-36S69.883,14,50,14z M50,80    c-16.567,0-30-13.432-30-30s13.433-30,30-30c16.568,0,30,13.432,30,30S66.568,80,50,80z"/>
	</g>
	<path d="M60,25L40,46l0,0v29l20-21l0,0V25z M52.283,52.229c-1.171,1.171-3.071,1.171-4.242,0c-1.172-1.171-1.172-3.071-0.001-4.243   c1.171-1.171,3.071-1.17,4.243,0.001C53.454,49.158,53.454,51.059,52.283,52.229z"/>
</g>
<text x="0.0" y="117.5" font-size="5.0" font-weight="bold" font-family="Helvetica Neue, Helvetica, Arial-Unicode, Arial, Sans-serif" fill="#000000">Created by Jens Windolf</text><text x="0.0" y="122.5" font-size="5.0" font-weight="bold" font-family="Helvetica Neue, Helvetica, Arial-Unicode, Arial, Sans-serif" fill="#000000">from the Noun Project</text></svg>