<?xml version="1.0" encoding="UTF-8" standalone="no"?>
<svg width="206px" height="183px" viewBox="0 0 206 183" version="1.1" xmlns="http://www.w3.org/2000/svg" xmlns:xlink="http://www.w3.org/1999/xlink">
    <!-- Generator: Sketch 42 (36781) - http://www.bohemiancoding.com/sketch -->
    <title>profile_placeholder</title>
    <desc>Created with Sketch.</desc>
    <defs>
        <linearGradient x1="50%" y1="2.66860651%" x2="50%" y2="61.1502635%" id="linearGradient-1">
            <stop stop-color="#D8D8D8" offset="0%"></stop>
            <stop stop-color="#FFFFFF" offset="78.1907685%"></stop>
        </linearGradient>
    </defs>
    <g id="Symbols" stroke="none" stroke-width="1" fill="none" fill-rule="evenodd">
        <g id="profile_placeholder">
            <g id="Generic-School-Profile-Image-Placeholder" fill="url(#linearGradient-1)">
                <rect id="Rectangle" x="0" y="0" width="206" height="183" rx="4"></rect>
            </g>
            <g id="school" transform="translate(21.000000, 13.000000)">
                <path d="M137.881515,115.150319 C132.141639,115.116927 132.180847,115.996514 132.224139,109.031484 C132.26253,103.011195 132.236391,103.011195 138.636267,103.014453 C144.024906,103.016896 144.024906,103.016896 144.017554,109.889896 C144.011837,115.152762 144.011837,115.152762 137.881515,115.150319 M137.919089,137.135937 C132.238025,137.135937 132.238025,137.135937 132.23149,130.091906 C132.226589,125.057081 132.226589,125.057081 138.799634,125.059525 C144.024906,125.061154 144.024906,125.061154 144.017554,131.751721 C144.011837,137.135937 144.011837,137.135937 137.919089,137.135937 M117.645327,131.502504 C117.637158,137.146525 117.637158,137.146525 110.891762,137.135937 C105.80045,137.128607 105.80045,137.128607 105.803718,131.139267 C105.692629,124.63602 105.327505,125.037535 112.456812,125.057081 C117.653495,125.072556 117.653495,125.064411 117.645327,131.502504 M88.1176782,102.837721 C82.3394109,105.736288 73.4800545,103.184669 69.993,95.6796691 C66.8963911,89.0151639 70.2886931,79.8674526 76.8805248,77.1097825 C79.3743119,76.0664938 80.3561436,75.6698649 80.3561436,79.4015969 C80.3561436,79.4015969 80.3765644,82.6544423 80.3765644,84.2776072 C80.3765644,87.8187619 81.105995,87.743834 78.243,87.743834 C75.792505,87.743834 74.7698317,88.5134732 74.9634208,90.2368134 C75.1455743,91.8616072 75.3154752,92.3820299 77.7602525,92.3820299 C78.5697327,92.3820299 79.3873812,92.3608546 80.2017624,92.3518959 C84.2344604,92.3087309 84.5113663,92.0236794 84.5350545,87.8839165 C84.5424059,86.5287 84.5358713,85.1742979 84.5358713,83.8198959 C84.5342376,82.4654938 84.5170842,81.1102773 84.5391386,79.7566897 C84.6044851,75.7382773 85.7300792,75.8115763 88.4207228,77.3247928 C93.4115644,80.1305144 96.2761931,84.3883701 96.1977772,90.1749165 C96.1193614,95.9508753 93.2457475,100.264927 88.1176782,102.837721 M90.9847574,145.851185 C90.9929257,147.57371 89.8420099,147.751257 88.5179257,147.748813 C84.4509208,147.741484 80.3822822,147.708092 76.3152772,147.757772 C74.5590891,147.778947 73.9039901,147.008494 73.9423812,145.305514 C74.0085446,142.332834 73.9611683,139.35771 73.9611683,136.383401 C73.9595347,133.949875 73.8909208,131.513906 73.9734208,129.082824 C74.1514901,123.837061 77.2758713,120.171298 81.765995,119.826793 C86.6645347,119.452154 90.3917376,122.439494 90.8205743,128.016731 C91.2739158,133.931143 90.957802,139.904195 90.9847574,145.851185 M55.7482723,115.192669 C46.063099,114.895401 47.8666634,116.643174 47.7041139,107.451484 C47.625698,103.030741 47.698396,103.029112 52.192604,103.060061 C52.4646089,103.062504 52.7366139,103.079607 53.0069851,103.067391 C60.5267376,102.730215 59.0564406,103.713236 59.1528267,109.204143 C59.1528267,110.016133 59.0744109,110.837081 59.1675297,111.638484 C59.4697574,114.23571 58.4805743,115.276556 55.7482723,115.192669 M53.4096832,137.139195 C47.1592871,137.122906 47.6885941,137.695453 47.6877772,131.090401 C47.6951287,124.153061 47.1805248,125.090473 53.7821584,125.064411 C59.1552772,125.043236 59.1601782,125.064411 59.1520099,131.081442 C59.1422079,137.464154 59.8062921,137.155484 53.4096832,137.139195 M112.319584,103.014453 C117.648594,103.016081 117.648594,103.016081 117.645327,109.657782 C117.642059,115.157648 117.642059,115.157648 110.832134,115.151133 C105.78003,115.146246 105.78003,115.146246 105.78003,109.231834 C105.779213,103.012824 105.779213,103.012824 112.319584,103.014453 M29.0844356,137.15304 C28.4252525,137.052865 27.7374802,137.136752 27.0635941,137.136752 C20.9814653,137.136752 20.9814653,137.136752 21.0378267,130.971494 C21.0378267,130.165205 21.1088911,129.350772 21.0247574,128.551813 C20.7592871,126.018112 21.6308465,124.939803 24.4097079,125.005772 C34.3513663,125.241958 32.3819851,123.908731 32.7136188,133.431081 C32.8042871,136.056813 32.0748564,137.608308 29.0844356,137.15304 M26.5669604,103.015267 C32.6580743,103.01038 32.6874802,103.014453 32.6548069,107.605411 C32.5951782,115.92403 33.5982475,115.106339 26.8422327,115.150319 C21.0149554,115.153576 21.0239406,115.153576 21.0141386,110.073143 C20.997802,102.282277 20.5812178,103.018525 26.5669604,103.015267 M162.134064,148.048525 C158.143842,148.048525 158.86347,145.393473 158.86347,143.060937 C158.858569,125.840566 158.817728,108.620195 158.908396,91.4014526 C158.923099,88.7586175 158.576762,87.6566897 155.392752,87.7299887 C143.976713,87.9930505 132.550054,87.798401 121.126663,87.8440093 C116.540153,87.8627412 112.774559,86.4032773 109.509683,83.0250093 C101.491663,74.7291948 93.1844851,66.7111021 85.1721832,58.4112155 C83.0002277,56.1617515 81.8215396,56.3091639 79.7124802,58.5008031 C71.9027525,66.6133701 63.7458713,74.3952773 55.9696337,82.5387928 C52.3020594,86.3780299 48.0896584,87.9669887 42.9158465,87.9344113 C30.9574307,87.8578546 18.998198,87.9254526 7.03814851,87.9352258 C6.30136634,87.9857206 6.08490594,88.4352876 6.14126733,89.0957928 C6.09389109,100.466092 6.03589604,111.835576 6.00322277,123.205875 C5.98280198,130.381844 5.99668812,137.559442 6.0040396,144.735411 C6.00567327,146.241298 6.49740594,147.85469 3.92356931,147.85469 C-0.363163366,147.85469 -1.20776733,153.092308 1.73854455,156.783319 C2.09631683,157.015432 2.45327228,157.247545 2.81104455,157.480473 C3.88926238,157.552958 4.96829703,157.690597 6.04733168,157.691411 C56.9923069,157.701999 107.937282,157.701999 158.882257,157.691411 C159.959658,157.690597 161.037876,157.551329 162.115277,157.475587 C162.52696,157.243473 162.93946,157.010545 163.351144,156.778432 C166.031168,154.106277 164.515946,148.048525 162.134064,148.048525" id="Fill-1" fill="#9B9B9B"></path>
                <path d="M163.628458,77.7548134 C157.530809,69.4720299 151.354745,61.2454423 145.383705,52.8722567 C143.611998,50.3874216 141.584621,49.3661227 138.565611,49.4019577 L108.783111,49.4882876 C106.56623,49.5094629 104.973408,48.8359268 103.430413,47.2510402 L88.3133094,32.4462773 C84.1360322,29.0802258 84.5550668,25.0634423 84.5248441,20.8088443 C84.5142252,19.2817825 85.1807599,18.8273289 86.5375173,19.7256485 C90.2745223,22.1958237 94.1013787,21.3968649 97.8228639,19.8241948 C101.526379,18.2596691 105.167814,18.029999 108.831304,19.6963289 C110.677344,20.5368237 111.272814,20.0563082 111.206651,18.0910814 C111.08821,14.5702876 111.061255,11.0446072 111.080042,7.5213701 C111.112715,1.66152474 110.033681,0.547380412 104.123903,0.242782474 C101.877616,0.12713299 99.8494233,0.693163918 97.8195965,1.54994742 C93.619448,3.32052474 89.611255,3.62593711 85.4592995,0.921205155 C82.3659579,-1.09370206 80.3606361,0.312823711 80.351651,4.01116392 C80.3336807,11.1977206 80.2716015,18.3859062 80.4112797,25.5700196 C80.4521213,27.6639268 78.3291757,30.5429474 78.3291757,30.5429474 C72.6799678,36.028968 72.6799678,36.028968 61.556354,47.1761124 C59.8573441,48.8790918 58.168953,49.5086485 55.8409827,49.4866588 C46.0496213,49.392999 36.2566262,49.4614113 26.4652649,49.4361639 C24.2336807,49.4304629 22.1082847,49.5338959 20.6093985,51.5431021 C14.0526906,60.3332773 7.48618069,69.1161227 0.910685644,77.8924526 C-0.293324257,79.5009577 0.388730198,80.3243495 2.0387302,80.8032361 C2.30011634,80.8586175 2.56150248,80.9131845 2.82288861,80.9677515 C16.9859332,81.1534423 31.1481609,81.2788649 45.3095718,80.900968 L45.7122698,80.9579784 L46.0667748,80.7600711 C48.0059332,79.9358649 49.2336312,78.2687206 50.6557351,76.8491639 C60.5492005,66.9757928 70.4737054,57.1317412 80.2462797,47.1402773 C82.0343243,45.3126897 83.0349431,45.3778443 84.7151658,47.1117722 C90.188755,52.7623082 95.711354,58.3721227 101.373631,63.8328959 C107.216428,69.4671433 112.489894,75.6861536 118.848111,80.7902052 L119.618384,80.9188856 C124.341304,80.9815969 129.065042,81.1070196 133.787963,81.0923598 C143.501725,81.0597825 153.216304,80.9514629 162.930884,80.8749062 C164.638879,80.1630918 164.789993,79.1051433 163.628458,77.7548134" id="Fill-3" fill="#3F3F41"></path>
            </g>
        </g>
    </g>
</svg>